<svg id="Capa_1" enable-background="new 0 0 512 512" height="512" viewBox="0 0 512 512" width="512" xmlns="http://www.w3.org/2000/svg" xmlns:xlink="http://www.w3.org/1999/xlink"><linearGradient id="SVGID_1_" gradientUnits="userSpaceOnUse" x1="256" x2="256" y1="512" y2="0"><stop offset="0" stop-color="#fd3a84"/><stop offset="1" stop-color="#ffa68d"/></linearGradient><g><g><path d="m256 121c-74.324 0-135 60.453-135 135 0 74.324 60.453 135 135 135 74.324 0 135-60.453 135-135 0-74.324-60.453-135-135-135zm15 31.516c17.701 2.567 33.884 9.417 47.589 19.684l-43.31 43.31c-1.39-.665-2.814-1.225-4.279-1.747zm-30 0v61.247c-1.465.522-2.889 1.082-4.279 1.747l-43.31-43.31c13.705-10.267 29.888-17.117 47.589-19.684zm-68.8 40.895 43.31 43.31c-.665 1.39-1.225 2.814-1.747 4.279h-61.247c2.567-17.701 9.417-33.884 19.684-47.589zm-19.684 77.589h61.247c.522 1.465 1.082 2.889 1.747 4.279l-43.31 43.31c-10.267-13.705-17.117-29.888-19.684-47.589zm88.484 88.484c-17.701-2.567-33.884-9.417-47.589-19.684l43.31-43.31c1.39.665 2.814 1.225 4.279 1.747zm15-88.484c-8.276 0-15-6.724-15-15s6.724-15 15-15 15 6.724 15 15-6.724 15-15 15zm15 88.484v-61.247c1.465-.522 2.889-1.082 4.279-1.747l43.31 43.31c-13.705 10.267-29.888 17.117-47.589 19.684zm68.8-40.895-43.31-43.31c.665-1.39 1.225-2.814 1.747-4.279h61.247c-2.567 17.701-9.417 33.884-19.684 47.589zm-41.563-77.589c-.522-1.465-1.082-2.889-1.747-4.279l43.31-43.31c10.267 13.705 17.117 29.888 19.684 47.589zm198.763 0h-46.76c-3.259-42.488-20.112-81.162-46.32-111.709l32.388-32.388c5.859-5.859 5.859-15.352 0-21.211s-15.352-5.859-21.211 0l-32.388 32.388c-30.548-26.208-69.221-43.061-111.709-46.32v-46.76c0-8.291-6.709-15-15-15s-15 6.709-15 15v46.76c-42.488 3.259-81.161 20.112-111.709 46.32l-32.388-32.388c-5.859-5.859-15.352-5.859-21.211 0s-5.859 15.352 0 21.211l32.388 32.388c-26.208 30.547-43.061 69.221-46.32 111.709h-46.76c-8.291 0-15 6.709-15 15s6.709 15 15 15h46.76c3.259 42.488 20.112 81.162 46.32 111.709l-32.388 32.388c-5.859 5.859-5.859 15.352 0 21.211s15.351 5.859 21.211 0l32.388-32.388c30.547 26.208 69.221 43.061 111.709 46.32v46.76c0 8.291 6.709 15 15 15s15-6.709 15-15v-46.76c42.488-3.259 81.161-20.112 111.709-46.32l32.388 32.388c5.859 5.859 15.351 5.859 21.211 0 5.859-5.859 5.859-15.352 0-21.211l-32.388-32.388c26.208-30.547 43.061-69.221 46.32-111.709h46.76c8.291 0 15-6.709 15-15s-6.709-15-15-15zm-241 180c-90.981 0-165-74.019-165-165s74.019-165 165-165 165 74.019 165 165-74.019 165-165 165z" fill="url(#SVGID_1_)"/></g></g></svg>